<svg fill="none" height="352" viewBox="0 0 626 352" width="626" xmlns="http://www.w3.org/2000/svg"><path clip-rule="evenodd" d="m0 352h626v-352h-626z" fill="#fff" fill-opacity=".01" fill-rule="evenodd"/><path d="m570.937 128.295-56.479 32.608c-3.975 2.294-4.006 8.02-.058 10.359l31.592 18.71c3.949 2.339 3.917 8.064-.057 10.358l-168.02 97.007c-3.713 2.144-8.287 2.144-12 0l-220.879-127.525c-3.719-2.148-8.303-2.144-12.019.01l-51.3415 29.767c-3.989 2.313-3.987 8.076.006 10.385l48.4355 28.015c4.001 2.314 3.992 8.094-.015 10.396l-57.6525 33.12" stroke="#ff6f00" stroke-width="2"/><path clip-rule="evenodd" d="m76.4492 281.505c0-2.209-1.791-4-4-4s-4 1.791-4 4 1.791 4 4 4 4-1.791 4-4z" fill="#fff" fill-rule="evenodd"/><path clip-rule="evenodd" d="m76.4492 281.505c0-2.209-1.791-4-4-4s-4 1.791-4 4 1.791 4 4 4 4-1.791 4-4z" fill-rule="evenodd" stroke="#ff6f00" stroke-width="2"/><path clip-rule="evenodd" d="m574.697 128.295c0-2.209-1.791-4-4-4s-4 1.791-4 4 1.791 4 4 4 4-1.791 4-4z" fill="#fff" fill-rule="evenodd"/><path clip-rule="evenodd" d="m574.697 128.295c0-2.209-1.791-4-4-4s-4 1.791-4 4 1.791 4 4 4 4-1.791 4-4z" fill-rule="evenodd" stroke="#ff6f00" stroke-width="2"/><path d="m155.754 291.2 27.039-15.799c3.721-2.174 8.321-2.185 12.054-.031l44.046 25.431" stroke="#425066" stroke-width="2"/><path d="m421.798 310.4 61.868-35.72c4.001-2.309 4-8.084-.001-10.392l-58.631-33.828" stroke="#e5e6e8" stroke-width="2"/><path d="m139.126 51.1992 24.207 13.854c4.014 2.297 4.029 8.081.027 10.399l-65.1415 37.7468c-3.992 2.313-3.988 8.08.008 10.388l84.7825 48.949c3.713 2.143 8.287 2.143 12 0l27.256-15.736" stroke="#e5e6e8" stroke-width="2"/><path d="m504.906 70.3818-10.591 6.138c-3.716 2.152-8.298 2.156-12.017.009l-37.872-21.866c-3.713-2.143-8.287-2.143-12 0l-101.395 58.5402c-4 2.31-4 8.083 0 10.393l74.139 42.805" stroke="#e5e6e8" stroke-width="2"/><path d="m571.448 51.1992-57.592 33.149c-4.006 2.307-4.01 8.086-.007 10.397l19.932 11.5078c2.007 1.158 1.998 4.058-.017 5.205l-12.199 6.941" stroke="#e5e6e8" stroke-width="2"/><path d="m312.498 277.505-50.978 29.432c-3.712 2.143-8.287 2.143-12 0l-21.255-12.272c-3.713-2.143-8.287-2.143-12 0l-27.255 15.736" stroke="#425066" stroke-width="2"/><path clip-rule="evenodd" d="m193.01 310.4c0-2.209-1.791-4-4-4s-4 1.791-4 4 1.791 4 4 4 4-1.791 4-4z" fill="#fff" fill-rule="evenodd"/><path clip-rule="evenodd" d="m193.01 310.4c0-2.209-1.791-4-4-4s-4 1.791-4 4 1.791 4 4 4 4-1.791 4-4z" fill-rule="evenodd" stroke="#425066" stroke-width="2"/><path clip-rule="evenodd" d="m159.754 291.2c0-2.209-1.791-4-4-4s-4 1.791-4 4c0 2.21 1.791 4 4 4s4-1.79 4-4z" fill="#425066" fill-rule="evenodd"/><path clip-rule="evenodd" d="m159.754 291.2c0-2.209-1.791-4-4-4s-4 1.791-4 4c0 2.21 1.791 4 4 4s4-1.79 4-4z" fill-rule="evenodd" stroke="#425066" stroke-width="2"/><path clip-rule="evenodd" d="m508.906 69.4766c0-2.209-1.791-4-4-4s-4 1.791-4 4 1.791 4 4 4 4-1.791 4-4z" fill="#e5e6e8" fill-rule="evenodd"/><path clip-rule="evenodd" d="m508.906 69.4766c0-2.209-1.791-4-4-4s-4 1.791-4 4 1.791 4 4 4 4-1.791 4-4z" fill-rule="evenodd" stroke="#e5e6e8" stroke-width="2"/><path clip-rule="evenodd" d="m575.448 51.1992c0-2.209-1.791-4-4-4s-4 1.791-4 4 1.791 4 4 4 4-1.791 4-4z" fill="#e5e6e8" fill-rule="evenodd"/><path clip-rule="evenodd" d="m575.448 51.1992c0-2.209-1.791-4-4-4s-4 1.791-4 4 1.791 4 4 4 4-1.791 4-4z" fill-rule="evenodd" stroke="#e5e6e8" stroke-width="2"/><path clip-rule="evenodd" d="m425.798 310.4c0-2.209-1.791-4-4-4s-4 1.791-4 4 1.791 4 4 4 4-1.791 4-4z" fill="#fff" fill-rule="evenodd"/><path clip-rule="evenodd" d="m425.798 310.4c0-2.209-1.791-4-4-4s-4 1.791-4 4 1.791 4 4 4 4-1.791 4-4z" fill-rule="evenodd" stroke="#e5e6e8" stroke-width="2"/><path d="m421.807 80.002-57.511-33.204c-4-2.31-4-8.083 0-10.393l34.883-20.139c3.713-2.144 8.287-2.144 12 0l43.883 25.336" stroke="#425066" stroke-width="2"/><path clip-rule="evenodd" d="m458.562 41.6201c0-1.933-1.566-3.5-3.5-3.5-1.932 0-3.5 1.567-3.5 3.5s1.568 3.5 3.5 3.5c1.934 0 3.5-1.567 3.5-3.5z" fill="#fff" fill-rule="evenodd"/><path clip-rule="evenodd" d="m458.562 41.6201c0-1.933-1.567-3.5-3.5-3.5-1.932 0-3.5 1.567-3.5 3.5s1.568 3.5 3.5 3.5c1.933 0 3.5-1.567 3.5-3.5z" fill-rule="evenodd" stroke="#425066" stroke-width="2"/><path clip-rule="evenodd" d="m143.127 51.1992c0-2.209-1.791-4-4-4s-4 1.791-4 4 1.791 4 4 4 4-1.791 4-4z" fill="#fff" fill-rule="evenodd"/><path clip-rule="evenodd" d="m143.127 51.1992c0-2.209-1.791-4-4-4s-4 1.791-4 4 1.791 4 4 4 4-1.791 4-4z" fill-rule="evenodd" stroke="#e5e6e8" stroke-width="2"/><path clip-rule="evenodd" d="m525.565 118.399c0-2.209-1.791-4-4-4s-4 1.791-4 4 1.791 4 4 4 4-1.791 4-4z" fill="#fff" fill-rule="evenodd"/><path clip-rule="evenodd" d="m525.565 118.399c0-2.209-1.791-4-4-4s-4 1.791-4 4 1.791 4 4 4 4-1.791 4-4z" fill-rule="evenodd" stroke="#e5e6e8" stroke-width="2"/><path d="m205.854 12.9248 123.805 71.479c4 2.309 4 8.083 0 10.392l-40.883 23.6042" stroke="#e5e6e8" stroke-width="2"/><path clip-rule="evenodd" d="m209.854 12.9248c0-2.21-1.791-4-4-4s-4 1.79-4 4c0 2.209 1.791 4 4 4s4-1.791 4-4z" fill="#e5e6e8" fill-rule="evenodd"/><path clip-rule="evenodd" d="m209.854 12.9248c0-2.21-1.791-4-4-4s-4 1.79-4 4c0 2.209 1.791 4 4 4s4-1.791 4-4z" fill-rule="evenodd" stroke="#e5e6e8" stroke-width="2"/><path clip-rule="evenodd" d="m328.923 329.946 11.43 7.169 86.927-50.188v-7.169l-15.9 6.066z" fill="#b8baba" fill-rule="evenodd"/><path clip-rule="evenodd" d="m340.354 329.946v7.17l-158.333-91.414v-7.169l10.009 1.663 150.384 84.566z" fill="#425066" fill-rule="evenodd"/><path clip-rule="evenodd" d="m408.653 276.173-74.509 43.019-139.705-80.659 24.06-13.891c.858-.495 2.248-.495 3.105 0 2.572 1.485 6.742 1.485 9.314 0l13.97-8.066c2.572-1.485 2.572-3.892 0-5.378-.857-.495-.857-1.296 0-1.792l24.06-13.891zm-226.632-37.64 158.332 91.413 86.927-50.188-158.332-91.413z" fill="#fff" fill-rule="evenodd"/><path clip-rule="evenodd" d="m384.801 295.321-17.491 10.099c-.743.428-.65 1.177.208 1.672.857.496 2.154.549 2.896.121l17.491-10.099c.743-.429.65-1.178-.208-1.673-.857-.494-2.154-.548-2.896-.12z" fill="#e5e6e8" fill-rule="evenodd"/><path clip-rule="evenodd" d="m228.589 220.608c1.286.743 1.286 1.946 0 2.688-1.286.744-3.371.744-4.657.001-1.285-.743-1.285-1.946 0-2.689 1.286-.742 3.371-.742 4.657 0z" fill="#e5e6e8" fill-rule="evenodd"/><path clip-rule="evenodd" d="m242.56 212.543c1.286.742 1.286 1.946 0 2.688-1.286.743-3.371.743-4.657 0-1.286-.742-1.286-1.946 0-2.688s3.371-.742 4.657 0z" fill="#e5e6e8" fill-rule="evenodd"/><path clip-rule="evenodd" d="m408.653 276.173-74.509 43.019-139.705-80.659 24.06-13.891c.858-.495 2.248-.495 3.105 0 2.572 1.485 6.742 1.485 9.314 0l13.97-8.066c2.572-1.485 2.572-3.892 0-5.378-.857-.495-.857-1.296 0-1.792l24.06-13.891z" fill="#e5e6e8" fill-rule="evenodd"/><path d="m332.215 274.354s12.459-21.58-6.23-32.371l-21.803-12.588-34.263 8.992-15.575 19.782 21.804 12.588c18.689 10.79 56.067 3.597 56.067 3.597z" fill="#fff" stroke="#ff6f00" stroke-linecap="round" stroke-linejoin="round" stroke-width="2"/><path clip-rule="evenodd" d="m290.258 249.077c-.918.531-1.435 1.25-1.435 2s.517 1.47 1.435 2l.134.078 6.929-4-.134-.078c-.919-.53-2.165-.828-3.465-.828-1.299 0-2.545.298-3.464.828zm-1.732 5 .134.078-.732.422c-1.618.934-1.017 2.413.473 3.273l7.715 4.455c1.49.86 4.051 1.206 5.669.272l12.124-7c1.618-.934 1.017-2.412-.472-3.272l-7.716-4.455c-1.489-.86-4.051-1.207-5.668-.273l-1 .578-.134-.078c-1.378-.795-3.248-1.242-5.197-1.242-1.948 0-3.818.447-5.196 1.242-1.378.796-2.152 1.875-2.152 3 0 1.126.774 2.205 2.152 3zm1.134 1.5c-.295.171-.473.727.473 1.273l7.715 4.455c.946.545 1.909.443 2.205.272l12.124-7c.295-.17.473-.727-.472-1.272l-7.716-4.455c-.945-.546-1.909-.443-2.204-.273zm12.598-1.5c.957.553.957 1.448 0 2-.956.553-2.507.553-3.464 0-.956-.552-.956-1.447 0-2 .957-.552 2.508-.552 3.464 0z" fill="#425066" fill-rule="evenodd"/><path clip-rule="evenodd" d="m312.857 16.5088-6.209 17.925-145.915 69.9042-6.209-3.585 152.124-87.8282z" fill="#fff" fill-rule="evenodd"/><path clip-rule="evenodd" d="m154.525 229.807v-129.054l6.209 3.585 6.209 10.755-6.209 118.299z" fill="#425066" fill-rule="evenodd"/><path clip-rule="evenodd" d="m306.648 141.977-145.915 91.414v-14.34l139.706-80.658z" fill="#697587" fill-rule="evenodd"/><path clip-rule="evenodd" d="m306.648 141.978-139.706 80.659v-107.544l139.706-80.6595zm0-121.8845-139.706 80.6595-6.209 3.585v14.339 107.545 7.17l6.209-3.585 145.915-84.244v-7.169-107.5455-14.34z" fill="#ced0d1" fill-rule="evenodd"/><path clip-rule="evenodd" d="m169.272 106.578c0-1.484-1.042-2.087-2.329-1.344-1.286.742-2.328 2.548-2.328 4.032 0 1.486 1.042 2.087 2.328 1.345 1.287-.742 2.329-2.548 2.329-4.033z" fill="#e5e6e8" fill-rule="evenodd"/><path clip-rule="evenodd" d="m177.033 102.098c0-1.485-1.042-2.087-2.329-1.345-1.285.742-2.328 2.548-2.328 4.033s1.043 2.087 2.328 1.344c1.287-.742 2.329-2.548 2.329-4.032z" fill="#e5e6e8" fill-rule="evenodd"/><path clip-rule="evenodd" d="m184.794 97.6162c0-1.484-1.042-2.087-2.328-1.345-1.286.743-2.329 2.549-2.329 4.0328 0 1.486 1.043 2.087 2.329 1.345s2.328-2.5478 2.328-4.0328z" fill="#e5e6e8" fill-rule="evenodd"/><path clip-rule="evenodd" d="m306.648 142.026v-107.4806l-139.623 80.6106v107.48z" fill="#f8f8f8" fill-rule="evenodd"/><path d="m197.021 171.98 3.706-2.139-1.853 24.334z" fill="#e3e5e8"/><circle fill="#425066" r="2.13929" transform="matrix(.866025 -.5 .00000002 1 198.874 170.911)"/><path d="m206.285 150.32 3.705-2.139-1.853 29.415z" fill="#e3e5e8"/><circle fill="#425066" r="2.13929" transform="matrix(.866025 -.5 .00000002 1 208.137 149.25)"/><path d="m225 119.279 3.705-2.14-1.852 31.02z" fill="#e3e5e8"/><circle fill="#425066" r="2.13929" transform="matrix(.866025 -.5 .00000002 1 226.853 118.209)"/><path d="m212.306 126.52 3.705-2.139-1.852 43.588z" fill="#e3e5e8"/><circle fill="#425066" r="2.13929" transform="matrix(.866025 -.5 .00000002 1 214.159 125.451)"/><path d="m235.464 90.6872 3.706-2.1393-1.853 38.5071z" fill="#e3e5e8"/><circle fill="#425066" r="2.13929" transform="matrix(.866025 -.5 .00000002 1 237.317 89.6176)"/><path d="m243 105.279 3.705-2.14-1.852 11.232z" fill="#fbe5d4"/><circle fill="#ff6f00" r="2.13929" transform="matrix(.866025 -.5 .00000002 1 244.853 104.209)"/><path d="m263 66.3575 3.705-2.1393-1.852 14.4514z" fill="#e3e5e8"/><circle fill="#425066" r="2.13929" transform="matrix(.866025 -.5 .00000002 1 264.853 65.2878)"/><path d="m252 71.9045 3.705-2.1393-1.852 28.4514z" fill="#e3e5e8"/><circle fill="#425066" r="2.13929" transform="matrix(.866025 -.5 .00000002 1 253.853 70.8348)"/><path d="m272.75 94.832-3.706 2.1393 1.853-27.5433z" fill="#fbe5d4"/><circle fill="#ff6f00" r="2.13929" transform="matrix(-.866025 .5 -.0000001 -1 270.897 95.9017)"/><path d="m263.949 117.027-3.705 2.14 1.853-33.9616z" fill="#fbe5d4"/><circle fill="#ff6f00" r="2.13929" transform="matrix(-.866025 .5 -.0000001 -1 262.097 118.097)"/><path d="m252.37 119.434-3.705 2.139 1.852-16.044z" fill="#fbe5d4"/><circle fill="#ff6f00" r="2.13929" transform="matrix(-.866025 .5 -.0000001 -1 250.517 120.504)"/><path d="m280.392 79.7233-3.706 2.1393 1.853-25.4041z" fill="#fbe5d4"/><circle fill="#ff6f00" r="2.13929" transform="matrix(-.866025 .5 -.0000001 -1 278.539 80.793)"/><path d="m242.875 132.54-3.705 2.139 1.852-12.788z" fill="#e3e5e8"/><circle fill="#425066" r="2.13929" transform="matrix(-.866025 .5 -.0000001 -1 241.022 133.61)"/><path d="m219.485 177.997-3.705 2.139 1.852-17.916z" fill="#fbe5d4"/><circle fill="#ff6f00" r="2.13929" transform="matrix(-.866025 .5 -.0000001 -1 217.632 179.067)"/><path d="m226.705 158.701-3.705 2.14 1.853-10.917z" fill="#e3e5e8"/><circle fill="#425066" r="2.13929" transform="matrix(-.866025 .5 -.0000001 -1 224.853 159.771)"/><path d="m208.137 193.106-3.705 2.139 1.853-13.638z" fill="#fbe5d4"/><circle fill="#ff6f00" r="2.13929" transform="matrix(-.866025 .5 -.0000001 -1 206.285 194.175)"/><path d="m235.705 169.903-3.705 2.139 1.853-37.972z" fill="#fbe5d4"/><circle fill="#ff6f00" r="2.13929" transform="matrix(-.866025 .5 -.0000001 -1 233.853 170.972)"/><path d="m189.954 210.027 94.162-163.0939" stroke="#ced0d1" stroke-dasharray="2.14 2.14"/><path clip-rule="evenodd" d="m344.014 59.0732v143.0688l53.103 30.66 1.022-.59v-143.0708l-53.104-30.658z" fill="#ced0d1" fill-rule="evenodd"/><path clip-rule="evenodd" d="m397.116 89.7324-4.425 2.555v10.2176l4.425-2.5536v127.7426l-4.425 2.555v5.107l4.425-2.555 35.402-20.439v-143.0686z" fill="#3a485f" fill-rule="evenodd"/><path clip-rule="evenodd" d="m406 95.5v141.158l53.103 30.66 1.022-.592v-143.068l-51.625-29.658z" fill="#ced0d1" fill-rule="evenodd"/><path clip-rule="evenodd" d="m405.967 232.803-4.425 2.555 53.103 30.66 4.425-2.555z" fill="#fff" fill-rule="evenodd"/><path clip-rule="evenodd" d="m401.542 235.357v5.108l53.103 30.66v-5.108z" fill="#ced0d1" fill-rule="evenodd"/><path clip-rule="evenodd" d="m388.266 89.7324 4.425 2.555v10.2176l-4.425-2.5536z" fill="#ced0d1" fill-rule="evenodd"/><path clip-rule="evenodd" d="m339.588 61.6279v8.687l4.425 2.554v-8.686z" fill="#ced0d1" fill-rule="evenodd"/><path clip-rule="evenodd" d="m348.439 61.6279v8.687l-4.425 2.554v-8.686z" fill="#b8baba" fill-rule="evenodd"/><path clip-rule="evenodd" d="m344.014 197.034-4.425 2.555 53.102 30.66 4.426-2.556z" fill="#fff" fill-rule="evenodd"/><path clip-rule="evenodd" d="m339.588 199.589v5.108l53.103 30.66v-5.108z" fill="#ced0d1" fill-rule="evenodd"/><path clip-rule="evenodd" d="m450.219 125.501 4.425 2.555v10.218l-4.425-2.554z" fill="#ced0d1" fill-rule="evenodd"/><path clip-rule="evenodd" d="m401.542 97.3965v8.6865l4.425 2.555v-8.6865z" fill="#ced0d1" fill-rule="evenodd"/><path clip-rule="evenodd" d="m410.392 97.3965v8.6865l-4.425 2.555v-8.6865z" fill="#b8baba" fill-rule="evenodd"/><path clip-rule="evenodd" d="m441.368 74.4023-35.401 20.439-4.426 2.555 4.426 2.555 4.424-2.555 44.253 25.5497-4.425 2.555 4.425 2.554 4.425-2.554 35.402-20.44z" fill="#fff" fill-rule="evenodd"/><path clip-rule="evenodd" d="m397.116 89.7324 35.401-20.439-53.102-30.66-35.402 20.44-4.425 2.555 4.425 2.554 4.425-2.554 44.253 25.549-4.425 2.555 4.425 2.555z" fill="#fff" fill-rule="evenodd"/><path clip-rule="evenodd" d="m459.069 125.501-4.425 2.555v10.218l4.425-2.554v127.743l-4.425 2.555v5.107l4.425-2.555 35.402-20.439v-143.069z" fill="#3a485f" fill-rule="evenodd"/><path clip-rule="evenodd" d="m483.851 123.19c-.978.564-1.77 1.937-1.77 3.065v5.102c0 1.129.792 1.586 1.77 1.021.978-.564 1.77-1.936 1.77-3.065v-5.102c0-1.128-.792-1.585-1.77-1.021z" fill="#ced0d1" fill-rule="evenodd"/><path clip-rule="evenodd" d="m476.771 127.277c-.978.564-1.771 1.937-1.771 3.065v5.102c0 1.129.793 1.586 1.771 1.021.978-.564 1.77-1.936 1.77-3.065v-5.102c0-1.128-.792-1.585-1.77-1.021z" fill="#ced0d1" fill-rule="evenodd"/><path clip-rule="evenodd" d="m469.69 131.365c-.978.564-1.77 1.937-1.77 3.065v5.102c0 1.129.792 1.586 1.77 1.021.978-.564 1.77-1.936 1.77-3.065v-5.102c0-1.128-.792-1.585-1.77-1.021z" fill="#ced0d1" fill-rule="evenodd"/><path d="m348 80 11 6v12l-11-6z" fill="#fbe5d4"/><path d="m359 86 11 6v12l-11-6z" fill="#fbe5d4"/><path d="m370 92 11 6v12l-11-6z" fill="#fbe5d4"/><path d="m381 98 11 6v12l-11-6z" fill="#fbe5d4"/><path d="m348 104 11 6v12l-11-6z" fill="#fbe5d4"/><path d="m359 110 11 6v12l-11-6z" fill="#fbe5d4"/><path d="m370 116 11 6v12l-11-6z" fill="#fbe5d4"/><path d="m381 122 11 6v12l-11-6z" fill="#fbe5d4"/><path d="m348 128 11 6v12l-11-6z" fill="#fbe5d4"/><path d="m359 134 11 6v12l-11-6z" fill="#fbe5d4"/><path d="m370 140 11 6v12l-11-6z" fill="#fbe5d4"/><path d="m381 146 11 6v12l-11-6z" fill="#fbe5d4"/><path d="m348 152 11 6v12l-11-6z" fill="#e3e5e8"/><path d="m359 158 11 6v12l-11-6z" fill="#e3e5e8"/><path d="m370 164 11 6v12l-11-6z" fill="#fbe5d4"/><path d="m381 170 11 6v12l-11-6z" fill="#fbe5d4"/><path d="m348 176 11 6v12l-11-6z" fill="#e3e5e8"/><path d="m359 182 11 6v12l-11-6z" fill="#e3e5e8"/><path d="m370 188 11 6v12l-11-6z" fill="#e3e5e8"/><path d="m381 194 11 6v12l-11-6z" fill="#e3e5e8"/><path d="m410 116 11 6v12l-11-6z" fill="#fbe5d4"/><path d="m421 122 11 6v12l-11-6z" fill="#fbe5d4"/><path d="m432 128 11 6v12l-11-6z" fill="#fbe5d4"/><path d="m443 134 11 6v12l-11-6z" fill="#fbe5d4"/><path d="m410 140 11 6v12l-11-6z" fill="#e3e5e8"/><path d="m421 146 11 6v12l-11-6z" fill="#e3e5e8"/><path d="m432 152 11 6v12l-11-6z" fill="#fbe5d4"/><path d="m443 158 11 6v12l-11-6z" fill="#fbe5d4"/><path d="m410 164 11 6v12l-11-6z" fill="#e3e5e8"/><path d="m421 170 11 6v12l-11-6z" fill="#e3e5e8"/><path d="m432 176 11 6v12l-11-6z" fill="#e3e5e8"/><path d="m443 182 11 6v12l-11-6z" fill="#e3e5e8"/><path d="m410 188 11 6v12l-11-6z" fill="#e3e5e8"/><path d="m421 194 11 6v12l-11-6z" fill="#e3e5e8"/><path d="m432 200 11 6v12l-11-6z" fill="#e3e5e8"/><path d="m443 206 11 6v12l-11-6z" fill="#e3e5e8"/><path d="m410 212 11 6v12l-11-6z" fill="#e3e5e8"/><path d="m421 218 11 6v12l-11-6z" fill="#e3e5e8"/><path d="m432 224 11 6v12l-11-6z" fill="#e3e5e8"/><path d="m443 230 11 6v12l-11-6z" fill="#e3e5e8"/><g fill="#ff6f00"><circle r="2" transform="matrix(.866025 .5 -.00000002 1 352.732 137)"/><circle r="2" transform="matrix(.866025 .5 -.00000002 1 363.732 143)"/><circle r="2" transform="matrix(.866025 .5 -.00000002 1 374.732 149)"/><circle r="2" transform="matrix(.866025 .5 -.00000002 1 385.732 155)"/><circle r="2" transform="matrix(.866025 .5 -.00000002 1 352.732 161)"/><circle r="2" transform="matrix(.866025 .5 -.00000002 1 363.732 167)"/><circle r="2" transform="matrix(.866025 .5 -.00000002 1 374.732 173)"/><circle r="2" transform="matrix(.866025 .5 -.00000002 1 385.732 179)"/><circle r="2" transform="matrix(.866025 .5 -.00000002 1 352.732 185)"/><circle r="2" transform="matrix(.866025 .5 -.00000002 1 363.732 191)"/><circle r="2" transform="matrix(.866025 .5 -.00000002 1 374.732 197)"/><circle r="2" transform="matrix(.866025 .5 -.00000002 1 385.732 203)"/><circle r="2" transform="matrix(.866025 .5 -.00000002 1 352.732 89)"/><circle r="2" transform="matrix(.866025 .5 -.00000002 1 363.732 95)"/><circle r="2" transform="matrix(.866025 .5 -.00000002 1 374.732 101)"/><circle r="2" transform="matrix(.866025 .5 -.00000002 1 385.732 107)"/><circle r="2" transform="matrix(.866025 .5 -.00000002 1 352.732 113)"/><circle r="2" transform="matrix(.866025 .5 -.00000002 1 363.732 119)"/><circle r="2" transform="matrix(.866025 .5 -.00000002 1 374.732 125)"/><circle r="2" transform="matrix(.866025 .5 -.00000002 1 385.732 131)"/></g><circle fill="#3a485f" r="2" transform="matrix(.866025 .5 -.00000002 1 414.732 173)"/><circle fill="#3a485f" r="2" transform="matrix(.866025 .5 -.00000002 1 425.732 179)"/><circle fill="#3a485f" r="2" transform="matrix(.866025 .5 -.00000002 1 436.732 185)"/><circle fill="#3a485f" r="2" transform="matrix(.866025 .5 -.00000002 1 447.732 191)"/><circle fill="#3a485f" r="2" transform="matrix(.866025 .5 -.00000002 1 414.732 197)"/><circle fill="#3a485f" r="2" transform="matrix(.866025 .5 -.00000002 1 425.732 203)"/><circle fill="#3a485f" r="2" transform="matrix(.866025 .5 -.00000002 1 436.732 209)"/><circle fill="#3a485f" r="2" transform="matrix(.866025 .5 -.00000002 1 447.732 215)"/><circle fill="#3a485f" r="2" transform="matrix(.866025 .5 -.00000002 1 414.732 221)"/><circle fill="#3a485f" r="2" transform="matrix(.866025 .5 -.00000002 1 425.732 227)"/><circle fill="#3a485f" r="2" transform="matrix(.866025 .5 -.00000002 1 436.732 233)"/><circle fill="#3a485f" r="2" transform="matrix(.866025 .5 -.00000002 1 447.732 239)"/><circle fill="#3a485f" r="2" transform="matrix(.866025 .5 -.00000002 1 414.732 125)"/><circle fill="#3a485f" r="2" transform="matrix(.866025 .5 -.00000002 1 425.732 131)"/><circle fill="#3a485f" r="2" transform="matrix(.866025 .5 -.00000002 1 436.732 137)"/><circle fill="#3a485f" r="2" transform="matrix(.866025 .5 -.00000002 1 447.732 143)"/><circle fill="#3a485f" r="2" transform="matrix(.866025 .5 -.00000002 1 414.732 149)"/><circle fill="#3a485f" r="2" transform="matrix(.866025 .5 -.00000002 1 425.732 155)"/><circle fill="#3a485f" r="2" transform="matrix(.866025 .5 -.00000002 1 436.732 161)"/><circle fill="#3a485f" r="2" transform="matrix(.866025 .5 -.00000002 1 447.732 167)"/></svg>